<?xml version="1.0" encoding="utf-8"?>
<!-- Svg Vector Icons : http://www.onlinewebfonts.com/icon -->
<!DOCTYPE svg PUBLIC "-//W3C//DTD SVG 1.1//EN" "http://www.w3.org/Graphics/SVG/1.1/DTD/svg11.dtd">
<svg version="1.1" xmlns="http://www.w3.org/2000/svg" xmlns:xlink="http://www.w3.org/1999/xlink" x="0px" y="0px" viewBox="0 0 1000 1000" enable-background="new 0 0 1000 1000" xml:space="preserve">
<metadata> Svg Vector Icons : http://www.onlinewebfonts.com/icon </metadata>
<g><path d="M10,13.7h273v273H10V13.7z"/><path d="M363.5,13.7h273v273h-273V13.7L363.5,13.7z"/><path d="M717,13.7h273v273H717V13.7z"/><path d="M10,364.9h273v273H10V364.9L10,364.9z"/><path d="M363.5,364.9h273v273h-273V364.9L363.5,364.9z"/><path d="M717,364.9h273v273H717V364.9L717,364.9z"/><path d="M10,713.4h273v273H10V713.4z"/><path d="M363.5,713.4h273v273h-273V713.4L363.5,713.4z"/><path d="M717,713.4h273v273H717V713.4z"/></g>
</svg>